<mxfile host="app.diagrams.net" agent="Mozilla/5.0 (X11; Ubuntu; Linux x86_64; rv:134.0) Gecko/20100101 Firefox/134.0" version="26.0.6">
  <diagram name="Seite-1" id="zSyLUAe6KpHAuvgjGnL1">
    <mxGraphModel dx="1670" dy="963" grid="1" gridSize="10" guides="1" tooltips="1" connect="1" arrows="1" fold="1" page="1" pageScale="1" pageWidth="827" pageHeight="1169" math="0" shadow="0">
      <root>
        <mxCell id="0" />
        <mxCell id="1" parent="0" />
        <mxCell id="cyqcqpIjecA0Tk87dEvY-46" value="" style="rounded=0;whiteSpace=wrap;html=1;" vertex="1" parent="1">
          <mxGeometry x="214" y="320" width="406" height="240" as="geometry" />
        </mxCell>
        <mxCell id="cyqcqpIjecA0Tk87dEvY-1" value="" style="rounded=0;whiteSpace=wrap;html=1;" vertex="1" parent="1">
          <mxGeometry x="214" y="50" width="406" height="270" as="geometry" />
        </mxCell>
        <mxCell id="cyqcqpIjecA0Tk87dEvY-2" value="&lt;font style=&quot;font-size: 30px;&quot;&gt;Datenschicht&lt;/font&gt;" style="text;html=1;align=center;verticalAlign=middle;resizable=0;points=[];autosize=1;strokeColor=none;fillColor=none;rotation=-90;" vertex="1" parent="1">
          <mxGeometry x="90" y="150" width="200" height="50" as="geometry" />
        </mxCell>
        <mxCell id="cyqcqpIjecA0Tk87dEvY-4" value="" style="strokeWidth=2;html=1;shape=mxgraph.flowchart.database;whiteSpace=wrap;fillColor=#d5e8d4;strokeColor=#82b366;" vertex="1" parent="1">
          <mxGeometry x="374" y="60" width="80" height="80" as="geometry" />
        </mxCell>
        <mxCell id="cyqcqpIjecA0Tk87dEvY-5" value="&lt;div&gt;Datenbank&lt;/div&gt;&lt;div&gt;(SQLite)&lt;br&gt;&lt;/div&gt;" style="text;html=1;align=center;verticalAlign=middle;resizable=0;points=[];autosize=1;strokeColor=none;fillColor=none;" vertex="1" parent="1">
          <mxGeometry x="374" y="90" width="80" height="40" as="geometry" />
        </mxCell>
        <mxCell id="cyqcqpIjecA0Tk87dEvY-9" value="Data DAO" style="rounded=1;whiteSpace=wrap;html=1;fillColor=#dae8fc;strokeColor=#6c8ebf;" vertex="1" parent="1">
          <mxGeometry x="220" y="160" width="120" height="40" as="geometry" />
        </mxCell>
        <mxCell id="cyqcqpIjecA0Tk87dEvY-22" style="edgeStyle=orthogonalEdgeStyle;rounded=0;orthogonalLoop=1;jettySize=auto;html=1;endArrow=none;endFill=0;" edge="1" parent="1" source="cyqcqpIjecA0Tk87dEvY-11" target="cyqcqpIjecA0Tk87dEvY-9">
          <mxGeometry relative="1" as="geometry" />
        </mxCell>
        <mxCell id="cyqcqpIjecA0Tk87dEvY-11" value="Data Repository" style="rounded=1;whiteSpace=wrap;html=1;fillColor=#dae8fc;strokeColor=#6c8ebf;" vertex="1" parent="1">
          <mxGeometry x="220" y="230" width="120" height="60" as="geometry" />
        </mxCell>
        <mxCell id="cyqcqpIjecA0Tk87dEvY-23" style="edgeStyle=orthogonalEdgeStyle;rounded=0;orthogonalLoop=1;jettySize=auto;html=1;endArrow=none;endFill=0;" edge="1" parent="1" source="cyqcqpIjecA0Tk87dEvY-14" target="cyqcqpIjecA0Tk87dEvY-16">
          <mxGeometry relative="1" as="geometry" />
        </mxCell>
        <mxCell id="cyqcqpIjecA0Tk87dEvY-52" style="edgeStyle=orthogonalEdgeStyle;rounded=0;orthogonalLoop=1;jettySize=auto;html=1;entryX=0.5;entryY=0;entryDx=0;entryDy=0;endArrow=none;endFill=0;" edge="1" parent="1" source="cyqcqpIjecA0Tk87dEvY-14" target="cyqcqpIjecA0Tk87dEvY-26">
          <mxGeometry relative="1" as="geometry">
            <Array as="points">
              <mxPoint x="414" y="330" />
            </Array>
          </mxGeometry>
        </mxCell>
        <mxCell id="cyqcqpIjecA0Tk87dEvY-14" value="AI Model Repository" style="rounded=1;whiteSpace=wrap;html=1;fillColor=#fff2cc;strokeColor=#d6b656;" vertex="1" parent="1">
          <mxGeometry x="354" y="230" width="120" height="60" as="geometry" />
        </mxCell>
        <mxCell id="cyqcqpIjecA0Tk87dEvY-24" style="edgeStyle=orthogonalEdgeStyle;rounded=0;orthogonalLoop=1;jettySize=auto;html=1;endArrow=none;endFill=0;" edge="1" parent="1" source="cyqcqpIjecA0Tk87dEvY-15" target="cyqcqpIjecA0Tk87dEvY-17">
          <mxGeometry relative="1" as="geometry" />
        </mxCell>
        <mxCell id="cyqcqpIjecA0Tk87dEvY-15" value="Intent Repository" style="rounded=1;whiteSpace=wrap;html=1;fillColor=#f8cecc;strokeColor=#b85450;" vertex="1" parent="1">
          <mxGeometry x="490" y="230" width="120" height="60" as="geometry" />
        </mxCell>
        <mxCell id="cyqcqpIjecA0Tk87dEvY-16" value="AI Model DAO" style="rounded=1;whiteSpace=wrap;html=1;fillColor=#fff2cc;strokeColor=#d6b656;" vertex="1" parent="1">
          <mxGeometry x="354" y="160" width="120" height="40" as="geometry" />
        </mxCell>
        <mxCell id="cyqcqpIjecA0Tk87dEvY-17" value="Intent DAO" style="rounded=1;whiteSpace=wrap;html=1;fillColor=#f8cecc;strokeColor=#b85450;" vertex="1" parent="1">
          <mxGeometry x="490" y="160" width="120" height="40" as="geometry" />
        </mxCell>
        <mxCell id="cyqcqpIjecA0Tk87dEvY-18" style="edgeStyle=orthogonalEdgeStyle;rounded=0;orthogonalLoop=1;jettySize=auto;html=1;entryX=0.5;entryY=1;entryDx=0;entryDy=0;entryPerimeter=0;endArrow=none;endFill=0;" edge="1" parent="1" source="cyqcqpIjecA0Tk87dEvY-16" target="cyqcqpIjecA0Tk87dEvY-4">
          <mxGeometry relative="1" as="geometry" />
        </mxCell>
        <mxCell id="cyqcqpIjecA0Tk87dEvY-19" style="edgeStyle=orthogonalEdgeStyle;rounded=0;orthogonalLoop=1;jettySize=auto;html=1;entryX=0;entryY=0.5;entryDx=0;entryDy=0;entryPerimeter=0;endArrow=none;endFill=0;" edge="1" parent="1" source="cyqcqpIjecA0Tk87dEvY-9" target="cyqcqpIjecA0Tk87dEvY-4">
          <mxGeometry relative="1" as="geometry">
            <mxPoint x="340" y="105" as="targetPoint" />
            <Array as="points">
              <mxPoint x="280" y="100" />
            </Array>
          </mxGeometry>
        </mxCell>
        <mxCell id="cyqcqpIjecA0Tk87dEvY-20" style="edgeStyle=orthogonalEdgeStyle;rounded=0;orthogonalLoop=1;jettySize=auto;html=1;entryX=1;entryY=0.5;entryDx=0;entryDy=0;entryPerimeter=0;endArrow=none;endFill=0;" edge="1" parent="1" source="cyqcqpIjecA0Tk87dEvY-17" target="cyqcqpIjecA0Tk87dEvY-4">
          <mxGeometry relative="1" as="geometry">
            <Array as="points">
              <mxPoint x="550" y="100" />
            </Array>
          </mxGeometry>
        </mxCell>
        <mxCell id="cyqcqpIjecA0Tk87dEvY-26" value="" style="rounded=0;whiteSpace=wrap;html=1;fillColor=#ffe6cc;strokeColor=#d79b00;" vertex="1" parent="1">
          <mxGeometry x="220" y="330" width="390" height="220" as="geometry" />
        </mxCell>
        <mxCell id="cyqcqpIjecA0Tk87dEvY-27" value="&lt;font style=&quot;font-size: 30px;&quot;&gt;DomÃ¤nenschicht&lt;/font&gt;" style="text;html=1;align=center;verticalAlign=middle;resizable=0;points=[];autosize=1;strokeColor=none;fillColor=none;rotation=-90;" vertex="1" parent="1">
          <mxGeometry x="65" y="415" width="250" height="50" as="geometry" />
        </mxCell>
        <mxCell id="cyqcqpIjecA0Tk87dEvY-35" value="" style="rounded=0;whiteSpace=wrap;html=1;" vertex="1" parent="1">
          <mxGeometry x="214" y="560" width="406" height="270" as="geometry" />
        </mxCell>
        <mxCell id="cyqcqpIjecA0Tk87dEvY-36" value="&lt;font style=&quot;font-size: 30px;&quot;&gt;UI-Schicht&lt;/font&gt;" style="text;html=1;align=center;verticalAlign=middle;resizable=0;points=[];autosize=1;strokeColor=none;fillColor=none;rotation=-90;" vertex="1" parent="1">
          <mxGeometry x="110" y="680" width="160" height="50" as="geometry" />
        </mxCell>
        <mxCell id="cyqcqpIjecA0Tk87dEvY-37" value="&lt;div&gt;DataSeries&lt;/div&gt;&lt;div&gt;UseCases&lt;/div&gt;" style="ellipse;whiteSpace=wrap;html=1;" vertex="1" parent="1">
          <mxGeometry x="234" y="350" width="120" height="80" as="geometry" />
        </mxCell>
        <mxCell id="cyqcqpIjecA0Tk87dEvY-38" value="&lt;div&gt;DataSet&lt;/div&gt;&lt;div&gt;UseCases&lt;/div&gt;" style="ellipse;whiteSpace=wrap;html=1;" vertex="1" parent="1">
          <mxGeometry x="234" y="450" width="120" height="80" as="geometry" />
        </mxCell>
        <mxCell id="cyqcqpIjecA0Tk87dEvY-39" value="&lt;div&gt;Inference&lt;/div&gt;&lt;div&gt;UseCases&lt;/div&gt;" style="ellipse;whiteSpace=wrap;html=1;" vertex="1" parent="1">
          <mxGeometry x="354" y="400" width="120" height="80" as="geometry" />
        </mxCell>
        <mxCell id="cyqcqpIjecA0Tk87dEvY-40" value="&lt;div&gt;Intent&lt;/div&gt;&lt;div&gt;UseCases&lt;/div&gt;" style="ellipse;whiteSpace=wrap;html=1;" vertex="1" parent="1">
          <mxGeometry x="474" y="340" width="120" height="80" as="geometry" />
        </mxCell>
        <mxCell id="cyqcqpIjecA0Tk87dEvY-41" value="&lt;div&gt;AIModel&lt;/div&gt;&lt;div&gt;UseCases&lt;/div&gt;" style="ellipse;whiteSpace=wrap;html=1;" vertex="1" parent="1">
          <mxGeometry x="477" y="450" width="120" height="80" as="geometry" />
        </mxCell>
        <mxCell id="cyqcqpIjecA0Tk87dEvY-58" style="edgeStyle=orthogonalEdgeStyle;rounded=0;orthogonalLoop=1;jettySize=auto;html=1;endArrow=none;endFill=0;" edge="1" parent="1" source="cyqcqpIjecA0Tk87dEvY-43" target="cyqcqpIjecA0Tk87dEvY-54">
          <mxGeometry relative="1" as="geometry" />
        </mxCell>
        <mxCell id="cyqcqpIjecA0Tk87dEvY-43" value="Data Viewmodel" style="rounded=1;whiteSpace=wrap;html=1;fillColor=#dae8fc;strokeColor=#6c8ebf;" vertex="1" parent="1">
          <mxGeometry x="220" y="580" width="120" height="60" as="geometry" />
        </mxCell>
        <mxCell id="cyqcqpIjecA0Tk87dEvY-49" style="edgeStyle=orthogonalEdgeStyle;rounded=0;orthogonalLoop=1;jettySize=auto;html=1;entryX=0.5;entryY=1;entryDx=0;entryDy=0;endArrow=none;endFill=0;" edge="1" parent="1" source="cyqcqpIjecA0Tk87dEvY-44" target="cyqcqpIjecA0Tk87dEvY-26">
          <mxGeometry relative="1" as="geometry">
            <Array as="points">
              <mxPoint x="417" y="550" />
            </Array>
          </mxGeometry>
        </mxCell>
        <mxCell id="cyqcqpIjecA0Tk87dEvY-59" style="edgeStyle=orthogonalEdgeStyle;rounded=0;orthogonalLoop=1;jettySize=auto;html=1;endArrow=none;endFill=0;" edge="1" parent="1" source="cyqcqpIjecA0Tk87dEvY-44" target="cyqcqpIjecA0Tk87dEvY-55">
          <mxGeometry relative="1" as="geometry" />
        </mxCell>
        <mxCell id="cyqcqpIjecA0Tk87dEvY-44" value="AI Model Viewmodel" style="rounded=1;whiteSpace=wrap;html=1;fillColor=#fff2cc;strokeColor=#d6b656;" vertex="1" parent="1">
          <mxGeometry x="357" y="580" width="120" height="60" as="geometry" />
        </mxCell>
        <mxCell id="cyqcqpIjecA0Tk87dEvY-60" style="edgeStyle=orthogonalEdgeStyle;rounded=0;orthogonalLoop=1;jettySize=auto;html=1;endArrow=none;endFill=0;" edge="1" parent="1" source="cyqcqpIjecA0Tk87dEvY-45" target="cyqcqpIjecA0Tk87dEvY-56">
          <mxGeometry relative="1" as="geometry" />
        </mxCell>
        <mxCell id="cyqcqpIjecA0Tk87dEvY-45" value="Intent Viewmodel" style="rounded=1;whiteSpace=wrap;html=1;fillColor=#f8cecc;strokeColor=#b85450;" vertex="1" parent="1">
          <mxGeometry x="490" y="580" width="120" height="60" as="geometry" />
        </mxCell>
        <mxCell id="cyqcqpIjecA0Tk87dEvY-48" style="edgeStyle=orthogonalEdgeStyle;rounded=0;orthogonalLoop=1;jettySize=auto;html=1;endArrow=none;endFill=0;" edge="1" parent="1" source="cyqcqpIjecA0Tk87dEvY-43">
          <mxGeometry relative="1" as="geometry">
            <mxPoint x="280" y="550" as="targetPoint" />
          </mxGeometry>
        </mxCell>
        <mxCell id="cyqcqpIjecA0Tk87dEvY-50" style="edgeStyle=orthogonalEdgeStyle;rounded=0;orthogonalLoop=1;jettySize=auto;html=1;entryX=0.849;entryY=1;entryDx=0;entryDy=0;entryPerimeter=0;endArrow=none;endFill=0;" edge="1" parent="1" source="cyqcqpIjecA0Tk87dEvY-45" target="cyqcqpIjecA0Tk87dEvY-26">
          <mxGeometry relative="1" as="geometry">
            <Array as="points">
              <mxPoint x="550" y="550" />
            </Array>
          </mxGeometry>
        </mxCell>
        <mxCell id="cyqcqpIjecA0Tk87dEvY-51" style="edgeStyle=orthogonalEdgeStyle;rounded=0;orthogonalLoop=1;jettySize=auto;html=1;entryX=0.845;entryY=0.003;entryDx=0;entryDy=0;entryPerimeter=0;endArrow=none;endFill=0;" edge="1" parent="1" source="cyqcqpIjecA0Tk87dEvY-15" target="cyqcqpIjecA0Tk87dEvY-26">
          <mxGeometry relative="1" as="geometry" />
        </mxCell>
        <mxCell id="cyqcqpIjecA0Tk87dEvY-53" style="edgeStyle=orthogonalEdgeStyle;rounded=0;orthogonalLoop=1;jettySize=auto;html=1;entryX=0.153;entryY=0;entryDx=0;entryDy=0;entryPerimeter=0;endArrow=none;endFill=0;" edge="1" parent="1" source="cyqcqpIjecA0Tk87dEvY-11" target="cyqcqpIjecA0Tk87dEvY-26">
          <mxGeometry relative="1" as="geometry" />
        </mxCell>
        <mxCell id="cyqcqpIjecA0Tk87dEvY-63" style="edgeStyle=orthogonalEdgeStyle;rounded=0;orthogonalLoop=1;jettySize=auto;html=1;entryX=0;entryY=0.5;entryDx=0;entryDy=0;endArrow=none;endFill=0;" edge="1" parent="1" source="cyqcqpIjecA0Tk87dEvY-54" target="cyqcqpIjecA0Tk87dEvY-57">
          <mxGeometry relative="1" as="geometry">
            <Array as="points">
              <mxPoint x="280" y="780" />
            </Array>
          </mxGeometry>
        </mxCell>
        <mxCell id="cyqcqpIjecA0Tk87dEvY-54" value="&lt;div&gt;Data Manager &lt;br&gt;&lt;/div&gt;&lt;div&gt;Composable&lt;br&gt;&lt;/div&gt;" style="rounded=1;whiteSpace=wrap;html=1;fillColor=#dae8fc;strokeColor=#6c8ebf;" vertex="1" parent="1">
          <mxGeometry x="220" y="665" width="120" height="60" as="geometry" />
        </mxCell>
        <mxCell id="cyqcqpIjecA0Tk87dEvY-62" style="edgeStyle=orthogonalEdgeStyle;rounded=0;orthogonalLoop=1;jettySize=auto;html=1;entryX=0.5;entryY=0;entryDx=0;entryDy=0;endArrow=none;endFill=0;" edge="1" parent="1" source="cyqcqpIjecA0Tk87dEvY-55" target="cyqcqpIjecA0Tk87dEvY-57">
          <mxGeometry relative="1" as="geometry" />
        </mxCell>
        <mxCell id="cyqcqpIjecA0Tk87dEvY-55" value="&lt;div&gt;AI Model Manager&lt;/div&gt;&lt;div&gt;Composable&lt;br&gt;&lt;/div&gt;" style="rounded=1;whiteSpace=wrap;html=1;fillColor=#fff2cc;strokeColor=#d6b656;" vertex="1" parent="1">
          <mxGeometry x="357" y="665" width="120" height="60" as="geometry" />
        </mxCell>
        <mxCell id="cyqcqpIjecA0Tk87dEvY-61" style="edgeStyle=orthogonalEdgeStyle;rounded=0;orthogonalLoop=1;jettySize=auto;html=1;entryX=1;entryY=0.5;entryDx=0;entryDy=0;endArrow=none;endFill=0;" edge="1" parent="1" source="cyqcqpIjecA0Tk87dEvY-56" target="cyqcqpIjecA0Tk87dEvY-57">
          <mxGeometry relative="1" as="geometry">
            <Array as="points">
              <mxPoint x="550" y="780" />
            </Array>
          </mxGeometry>
        </mxCell>
        <mxCell id="cyqcqpIjecA0Tk87dEvY-56" value="&lt;div&gt;Intent Manager&lt;/div&gt;&lt;div&gt;Composable&lt;br&gt;&lt;/div&gt;" style="rounded=1;whiteSpace=wrap;html=1;fillColor=#f8cecc;strokeColor=#b85450;" vertex="1" parent="1">
          <mxGeometry x="490" y="665" width="120" height="60" as="geometry" />
        </mxCell>
        <mxCell id="cyqcqpIjecA0Tk87dEvY-57" value="&lt;div&gt;Main Window&lt;/div&gt;&lt;div&gt;Activity&lt;br&gt;&lt;/div&gt;" style="rounded=1;whiteSpace=wrap;html=1;fillColor=#e1d5e7;strokeColor=#9673a6;" vertex="1" parent="1">
          <mxGeometry x="357" y="750" width="120" height="60" as="geometry" />
        </mxCell>
        <mxCell id="cyqcqpIjecA0Tk87dEvY-64" value="" style="rounded=0;whiteSpace=wrap;html=1;" vertex="1" parent="1">
          <mxGeometry x="620" y="320" width="150" height="240" as="geometry" />
        </mxCell>
        <mxCell id="cyqcqpIjecA0Tk87dEvY-65" value="&lt;div&gt;External&lt;/div&gt;&lt;div&gt;Intent Service&lt;/div&gt;" style="rounded=1;whiteSpace=wrap;html=1;fillColor=#e1d5e7;strokeColor=#9673a6;" vertex="1" parent="1">
          <mxGeometry x="635" y="380" width="120" height="60" as="geometry" />
        </mxCell>
        <mxCell id="cyqcqpIjecA0Tk87dEvY-66" value="&lt;font style=&quot;font-size: 25px;&quot;&gt;Services&lt;/font&gt;" style="text;html=1;align=center;verticalAlign=middle;resizable=0;points=[];autosize=1;strokeColor=none;fillColor=none;" vertex="1" parent="1">
          <mxGeometry x="635" y="330" width="120" height="40" as="geometry" />
        </mxCell>
        <mxCell id="cyqcqpIjecA0Tk87dEvY-67" style="edgeStyle=orthogonalEdgeStyle;rounded=0;orthogonalLoop=1;jettySize=auto;html=1;entryX=0.998;entryY=0.364;entryDx=0;entryDy=0;entryPerimeter=0;endArrow=none;endFill=0;" edge="1" parent="1" source="cyqcqpIjecA0Tk87dEvY-65" target="cyqcqpIjecA0Tk87dEvY-26">
          <mxGeometry relative="1" as="geometry" />
        </mxCell>
      </root>
    </mxGraphModel>
  </diagram>
</mxfile>
